# xmcd
#
# Track frame offsets: 
#        150
#        21781
#        35535
#        66016
#        96337
#        110664
#        130440
#        159507
#        178830
#        197783
#        229687
#        258901
#
# Disc length: 3794 seconds
#
# Revision: 2
# Processed by: cddbd v1.5.2PL0 Copyright (c) Steve Scherf et al.
# Submitted via: ExactAudioCopyFreeDBPlugin 1.0
#
DISCID=a60ed00c
DTITLE=The Blue Poets - Live Power
DYEAR=2018
DGENRE=Blues
TTITLE0=Won't You Suffer
TTITLE1=Sad, Sad, Sad
TTITLE2=The Truth
TTITLE3=For A God
TTITLE4=Song For Gary
TTITLE5=Oh Pretty Woman
TTITLE6=Alien Angel
TTITLE7=Could Have Lived
TTITLE8=Too High
TTITLE9=With Your Eyes
TTITLE10=People Get Ready
TTITLE11=Goodbye
EXTD=
EXTT0=
EXTT1=
EXTT2=
EXTT3=
EXTT4=
EXTT5=
EXTT6=
EXTT7=
EXTT8=
EXTT9=
EXTT10=
EXTT11=
PLAYORDER=
